<?xml version="1.0" encoding="UTF-8" standalone="no"?>
<!-- Created with sK1/UniConvertor (http://sk1project.org/) -->

<svg
   xmlns:dc="http://purl.org/dc/elements/1.1/"
   xmlns:cc="http://creativecommons.org/ns#"
   xmlns:rdf="http://www.w3.org/1999/02/22-rdf-syntax-ns#"
   xmlns:svg="http://www.w3.org/2000/svg"
   xmlns="http://www.w3.org/2000/svg"
   xmlns:sodipodi="http://sodipodi.sourceforge.net/DTD/sodipodi-0.dtd"
   xmlns:inkscape="http://www.inkscape.org/namespaces/inkscape"
   width="709.69281"
   height="653.12103"
   viewBox="0 0 567.75427 522.4968"
   id="svg2"
   version="1.1"
   inkscape:version="0.48.4 r9939"
   sodipodi:docname="logo_bgc.svg"
   style="fill-rule:evenodd">
  <metadata
     id="metadata28">
    <rdf:RDF>
      <cc:Work
         rdf:about="">
        <dc:format>image/svg+xml</dc:format>
        <dc:type
           rdf:resource="http://purl.org/dc/dcmitype/StillImage" />
        <dc:title />
      </cc:Work>
    </rdf:RDF>
  </metadata>
  <sodipodi:namedview
     pagecolor="#ffffff"
     bordercolor="#666666"
     borderopacity="1"
     objecttolerance="10"
     gridtolerance="10"
     guidetolerance="10"
     inkscape:pageopacity="0"
     inkscape:pageshadow="2"
     inkscape:window-width="1871"
     inkscape:window-height="1056"
     id="namedview26"
     showgrid="false"
     showguides="true"
     inkscape:guide-bbox="true"
     inkscape:zoom="1"
     inkscape:cx="248.79047"
     inkscape:cy="292.115"
     inkscape:window-x="49"
     inkscape:window-y="24"
     inkscape:window-maximized="1"
     inkscape:current-layer="svg2"
     fit-margin-top="0"
     fit-margin-left="0"
     fit-margin-right="0"
     fit-margin-bottom="0" />
  <defs
     id="defs4">
    <marker
       id="ArrowEnd"
       viewBox="0 0 10 10"
       refX="0"
       refY="5"
       markerUnits="strokeWidth"
       markerWidth="4"
       markerHeight="3"
       orient="auto">
      <path
         d="M 0,0 10,5 0,10 z"
         id="path7"
         inkscape:connector-curvature="0" />
    </marker>
    <marker
       id="ArrowStart"
       viewBox="0 0 10 10"
       refX="10"
       refY="5"
       markerUnits="strokeWidth"
       markerWidth="4"
       markerHeight="3"
       orient="auto">
      <path
         d="M 10,0 0,5 10,10 z"
         id="path10"
         inkscape:connector-curvature="0" />
    </marker>
  </defs>
  <g
     id="g2998"
     transform="matrix(8.0156204,0,0,8.0156204,-143.21059,-18.771006)">
    <path
       inkscape:connector-curvature="0"
       id="path20"
       d="m 41.241121,29.439232 c 8.271931,-1.420425 13.705648,-9.704478 11.035171,-18.767262 -0.494645,7.1377 -3.305188,12.196151 -8.525579,13.234458 -3.658581,0.728659 -6.479007,-0.631154 -9.8398,0.279341 -7.196467,1.948802 -11.410174,9.968008 -8.969363,18.249426 0.56514,-8.157559 4.156785,-13.595493 10.911049,-13.425516 1.923503,0.243765 3.774008,0.570541 5.388522,0.429553 z m -3.571222,-9.09836 C 35.746528,8.024815 40.838052,3.6765763 48.043084,2.8490933 52.688716,2.3167635 54.825019,4.737283 59.416369,2.3417988 57.997257,5.0640597 56.894122,6.8428847 54.791814,9.0618041 52.514918,9.1566747 51.048771,8.8417568 49.557852,8.7482038 c -1.580123,2.6063082 -2.643597,5.0123332 -3.031381,8.4751122 -0.401883,-3.506261 -0.04809,-5.755486 1.274561,-8.4540298 -0.06759,0.00659 -0.135981,0.013177 -0.205026,0.0224 -1.09905,0.1344001 -2.164369,0.378165 -3.165123,0.7708242 -0.558024,3.5523796 -0.720885,6.4235346 0.447869,10.1841026 -1.977922,-3.398215 -2.469931,-5.744946 -2.152773,-9.319725 -0.862928,0.552094 -1.65075,1.257036 -2.33988,2.153037 0.66225,3.885744 1.390382,6.805652 3.878497,10.186737 -2.999626,-2.581273 -4.229255,-4.648663 -5.099693,-8.169418 -0.719831,1.523201 -1.23714,3.411391 -1.495004,5.743628 z M 68.191115,33.4686 c -3.158798,7.776759 1.011558,16.763119 10.118483,19.277192 -5.802395,-4.187486 -8.615706,-9.243302 -6.743064,-14.226647 1.311982,-3.491767 3.95413,-5.170451 4.954488,-8.505418 2.141574,-7.141653 -2.445686,-14.951353 -10.769138,-17.248014 6.630933,4.78438 9.355565,10.704573 5.646518,16.352013 -1.221855,1.504754 -2.475861,2.905414 -3.207287,4.350874 z M 44.064841,62.160387 c -9.902126,7.571206 -16.154366,5.174404 -20.322087,-0.760283 -2.686553,-3.827767 -1.580123,-6.860993 -5.876315,-9.750596 3.068275,-0.05271 5.158724,0.06588 8.1121,0.853836 1.170335,1.95539 1.594223,3.394262 2.223005,4.748804 3.045216,0.143624 5.666809,-0.07115 8.894256,-1.38353 -2.887889,2.026542 -5.033284,2.789461 -8.036204,2.915955 l 0.11793,0.169976 c 0.643012,0.901272 1.365742,1.722166 2.188745,2.412614 3.387673,-1.205648 5.987656,-2.433696 8.73403,-5.256098 -2.041827,3.360002 -3.868483,4.912192 -7.160627,6.340522 0.896923,0.494118 1.893461,0.849883 3.00964,1.027766 3.097528,-2.437649 5.315393,-4.47078 7.097248,-8.270877 -0.835652,3.867297 -2.064359,5.933369 -4.743401,8.380242 1.68211,-0.09487 3.588746,-0.540236 5.76168,-1.428331 z m 6.287948,-7.481606 c -5.197594,-6.590875 -15.070995,-7.407817 -21.757927,-0.73393 6.5076,-2.975249 12.293656,-2.919908 15.698986,1.170072 2.386524,2.867202 2.539767,5.993981 4.944343,8.512007 5.148578,5.391816 14.206228,5.265321 20.317085,-0.834072 -7.43707,3.399532 -13.930445,2.84085 -17.005967,-3.175532 -0.704151,-1.806495 -1.301046,-3.587955 -2.19652,-4.938545 z M 77.803357,35.235566 c 11.476715,4.864757 12.483794,11.484621 9.385213,18.041238 -1.998477,4.227015 -5.181915,4.765933 -5.57049,9.928478 -1.562862,-2.640567 -2.492726,-4.516898 -3.268162,-7.4737 1.121714,-1.984378 2.161338,-3.063532 3.02835,-4.281039 -1.380631,-2.71699 -2.862854,-4.889792 -5.599213,-7.045464 3.190157,1.507389 4.912982,2.995014 6.507337,5.543346 l 0.08999,-0.187106 c 0.46592,-1.004048 0.820368,-2.038402 1.014589,-3.095156 -2.723183,-2.348049 -5.075053,-4.001697 -8.886482,-4.992568 3.930939,0.113317 6.183063,0.932894 9.052374,3.088567 -0.01384,-1.023813 -0.196857,-2.066073 -0.593996,-3.124144 -3.65028,-1.487625 -6.51432,-2.409978 -10.698907,-2.079249 3.775193,-1.187201 6.178979,-1.139765 9.629504,-0.02108 -0.914184,-1.416472 -2.24435,-2.851391 -4.090112,-4.302121 z"
       style="fill:#00a859;fill-opacity:1;stroke:none" />
    <path
       inkscape:connector-curvature="0"
       id="path22"
       d="M 66.680036,30.955845 C 55.194092,26.113488 54.174232,19.496259 57.260164,12.933054 c 1.990708,-4.2309679 5.17296,-4.7751565 5.551784,-9.9390194 1.567869,2.6379315 2.501291,4.5129447 3.281998,7.4671114 -1.117234,1.987014 -2.155014,3.068803 -3.019786,4.28631 1.385902,2.715672 2.871946,4.885839 5.612654,7.03624 -3.193057,-1.502118 -4.918517,-2.987108 -6.518142,-5.531486 -0.02991,0.06193 -0.06048,0.123859 -0.0896,0.187106 -0.463944,1.005365 -0.815888,2.039719 -1.007869,3.09779 2.727268,2.342779 5.082169,3.991157 8.895442,4.97544 -3.930544,-0.105412 -6.184513,-0.921036 -9.057249,-3.07012 0.01568,1.023812 0.201073,2.064754 0.599925,3.121508 3.652652,1.481036 6.518537,2.39812 10.701938,2.059484 -3.772427,1.193789 -6.175949,1.151624 -9.628714,0.04085 0.917083,1.412519 2.249621,2.84612 4.097491,4.29158 z m -36.88427,12.683681 c 1.317912,-2.702497 1.666825,-4.951722 1.258222,-8.456666 -0.381064,3.462779 -1.439662,5.87144 -3.015042,8.480383 -1.490787,-0.09092 -2.957725,-0.401882 -5.234884,-0.303059 -2.09796,2.222872 -3.197669,4.004333 -4.611242,6.727911 4.586602,-2.40339 6.72778,0.01318 11.371831,-0.528377 7.203582,-0.841977 12.286805,-5.199439 10.339584,-17.511543 -0.253647,2.333555 -0.767398,4.221745 -1.483803,5.746264 -0.877554,-3.519439 -2.111004,-5.582875 -5.115506,-8.158877 2.494704,3.375814 3.228634,6.294404 3.898131,10.180149 -0.687417,0.896 -1.474053,1.603577 -2.335532,2.155672 0.310043,-3.574779 -0.18671,-5.920193 -2.170693,-9.314454 1.176001,3.757932 1.018278,6.629087 0.46737,10.182784 -0.9997,0.393977 -2.065019,0.640377 -3.163673,0.776095 l -0.204763,0.02372 z m 23.488,10.966785 c 9.8879,-7.589653 16.144225,-5.20471 20.323936,0.722071 2.693668,3.822497 1.593169,6.857041 5.895026,9.738737 -3.068407,0.05929 -5.159119,-0.05534 -8.113945,-0.838024 -1.173761,-1.952755 -1.60002,-3.391626 -2.231701,-4.744851 -3.045875,-0.137035 -5.667072,0.08301 -8.892016,1.401977 2.883805,-2.033131 5.027223,-2.801319 8.029879,-2.933084 l -0.117666,-0.168659 c -0.644725,-0.899954 -1.369431,-1.719531 -2.193884,-2.408661 -3.384774,1.212236 -5.982386,2.445555 -8.723231,5.273228 2.035113,-3.363956 3.859265,-4.918781 7.147983,-6.353699 -0.897582,-0.492801 -1.895042,-0.847248 -3.011221,-1.022495 -3.092657,2.442919 -5.306702,4.481321 -7.081442,8.284053 0.828142,-3.868614 2.052237,-5.937322 4.726541,-8.389465 -1.68172,0.09882 -3.58717,0.548142 -5.758259,1.438872 z"
       style="fill:#ffcc29;fill-opacity:1;stroke:none" />
  </g>
  <g
     id="g24"
     transform="translate(-17.866443,-2.3418353)" />
</svg>
